<?xml version="1.0" encoding="UTF-8"?>
<svg id="Camada_2" data-name="Camada 2" xmlns="http://www.w3.org/2000/svg" viewBox="0 0 163.91 166.82">
  <defs>
    <style>
      .cls-1 {
        fill: #d8fe0d;
      }

      .cls-2 {
        fill: #0b0c04;
      }
    </style>
  </defs>
  <g id="Camada_5" data-name="Camada 5">
    <g>
      <path class="cls-2" d="M135.71,166.82H28.21c-15.58,0-28.21-12.85-28.21-28.71V28.71C0,12.85,12.63,0,28.21,0h107.5c15.58,0,28.21,12.85,28.21,28.71v109.41c0,15.85-12.63,28.71-28.21,28.71Z"/>
      <path class="cls-1" d="M128.46,102.43c-.82,16.47-14.91,29.81-31.45,29.81h-34.97l-33.82.41,5.1-3.49v-.07s24.29-16.6,24.29-16.6l48.84-36h-19.1l24.23-30.85-62.53,41.49h19.83l-34.83,37.93,15.46-88.31h64.84c11.18,0,19.77,9.06,19.22,20.23-.51,10.13-8.38,18.52-18.19,20,8.35,5.23,13.62,14.67,13.07,25.45Z"/>
    </g>
  </g>
</svg>