<?xml version="1.0" encoding="UTF-8"?>
<svg id="Camada_2" data-name="Camada 2" xmlns="http://www.w3.org/2000/svg" viewBox="0 0 163.61 163.61">
  <defs>
    <style>
      .cls-1 {
        fill: #0b0c04;
      }
    </style>
  </defs>
  <g id="Camada_5" data-name="Camada 5">
    <path class="cls-1" d="M135.48,0H28.13C12.6,0,0,12.59,0,28.13v107.34c0,15.54,12.6,28.13,28.13,28.13h107.34c15.54,0,28.13-12.6,28.13-28.13V28.13c0-15.54-12.6-28.13-28.13-28.13ZM133.64,53.67c-.51,10.13-8.39,18.52-18.19,20,8.34,5.22,13.62,14.67,13.07,25.45-.82,16.47-14.91,29.81-31.45,29.81h-34.97l-33.82.41,5.1-3.49v-.07s24.29-16.6,24.29-16.6l48.83-36h-19.1l24.23-30.85-62.54,41.49h19.84l-34.83,37.94,15.46-88.31h64.84c11.18,0,19.77,9.05,19.23,20.23Z"/>
  </g>
</svg>