<?xml version="1.0" encoding="UTF-8"?>
<svg id="Camada_2" data-name="Camada 2" xmlns="http://www.w3.org/2000/svg" viewBox="0 0 460.99 97.26">
  <defs>
    <style>
      .cls-1 {
        fill: #0b0c04;
      }
    </style>
  </defs>
  <g id="Camada_5" data-name="Camada 5">
    <g>
      <g>
        <path class="cls-1" d="M457.6,44.23c-.54,10.88-9.85,19.7-20.77,19.7h-23.1l-22.34.27,3.37-2.31v-.05s16.04-10.97,16.04-10.97l32.26-23.78h-12.62l16-20.38-41.31,27.41h13.1l-23.01,25.06L405.44.84h42.84c7.38,0,13.06,5.98,12.7,13.37-.34,6.69-5.54,12.24-12.01,13.21,5.51,3.45,9,9.69,8.64,16.81Z"/>
        <path class="cls-1" d="M243.1,32.16c2.08-14.59-5.17-25.88-19.14-30.24C219.47.5,214.96,0,210.22,0c-11.26,0-22.14,3.19-30.5,10.8-8.03,7.3-12.38,17.78-11.59,28.59.98,13.42,11.12,21.78,23.97,24.1,8.38,1.43,16.9.91,24.99-1.61l6.22,6.7,11.4-.04-9.37-10.36c9.67-5.65,16.21-15.07,17.77-26.02ZM217.1,49.17l-11.3-12.26-1.66,10.8,4.28,4.66c-6.67,1.25-14.27.49-19.56-3.71-3.13-2.49-5.11-5.97-5.69-9.98-1.04-7.13,1.23-14.31,6.16-19.59,4.38-4.67,10.37-7.15,16.75-7.64,4.05-.3,7.92.03,11.66,1.41,5.99,2.19,10,7.24,10.6,13.57.87,8.97-3.27,17.96-11.25,22.74Z"/>
        <polygon class="cls-1" points="375.2 37.09 334.93 37.08 332.77 52.35 378.23 52.35 376.73 63.41 317 63.4 325.77 .85 385.48 .84 383.96 11.9 338.51 11.9 336.35 27.13 376.62 27.13 375.2 37.09"/>
        <polygon class="cls-1" points="134.31 63.38 120.13 63.42 123.8 37.74 83.45 37.74 79.88 63.4 65.7 63.41 74.48 .84 88.65 .84 85.08 26.49 125.34 26.5 128.91 .84 143.08 .84 134.31 63.38"/>
        <path class="cls-1" d="M317.95.84l-4.97,35.48c-1.27,8.57-5.85,16.01-12.93,20.99-8.38,5.9-18.92,7.79-29.05,6.62-4.2-.48-8.12-1.62-11.78-3.63-9.59-5.26-12.77-15.07-11.01-25.66L252.94.84h14.44s-5,35.8-5,35.8c-.83,6.81,2.1,12.75,8.64,14.95,5.35,1.8,11.26,1.5,16.47-.73,5.89-2.51,9.74-7.6,10.97-13.88l5.06-36.15h14.43Z"/>
        <path class="cls-1" d="M50.81,51.12c4.22-1.32,7.85-3.13,11.32-5.78l-1.8,12.69c-3.23,2.01-6.51,3.35-10.1,4.34-5.11,1.39-10.19,1.94-15.52,1.87-9.31-.12-19.15-2.16-26.26-8.31-4.26-3.68-7.09-8.54-8.01-14.14-1.86-11.31,2.27-22.66,10.73-30.34C20.05,3.38,31.93.07,43.84,0c7.98-.04,17.47,1.35,23.85,6.24l-1.79,12.62c-3.13-2.96-6.5-4.74-10.44-5.95-6.58-1.9-13.44-2.16-20.17-.85-12.14,2.49-21.5,11.39-20.93,24.14.43,9.68,8.12,14.97,17.31,16.34,6.43.96,12.8.43,19.14-1.41Z"/>
        <polygon class="cls-1" points="157.46 63.42 143.21 63.4 151.98 .84 166.24 .84 157.46 63.42"/>
      </g>
      <g>
        <path class="cls-1" d="M4.99,90.3c0-1.41.31-2.64.92-3.68.61-1.04,1.47-1.85,2.58-2.42,1.11-.57,2.41-.85,3.9-.85s2.82.28,3.92.85,1.96,1.37,2.57,2.41.91,2.27.91,3.69-.31,2.63-.92,3.67-1.47,1.85-2.58,2.42c-1.11.57-2.41.86-3.9.86s-2.8-.28-3.91-.85c-1.11-.57-1.97-1.38-2.58-2.42-.61-1.04-.91-2.27-.91-3.68ZM6.91,90.3c0,1.68.48,2.99,1.45,3.92s2.31,1.4,4.04,1.4,3.06-.47,4.03-1.41c.97-.94,1.46-2.24,1.46-3.91s-.48-2.99-1.45-3.92c-.96-.93-2.31-1.4-4.04-1.4s-3.06.47-4.03,1.41c-.97.94-1.46,2.24-1.46,3.91Z"/>
        <path class="cls-1" d="M31.55,83.68h2.28l5.51,11.31,5.49-11.31h2.21v13.24h-1.78v-10.63l-5.19,10.63h-1.56l-5.19-10.5v10.5h-1.76v-13.24Z"/>
        <path class="cls-1" d="M52.45,83.68h10.53v1.61h-8.7v3.99h8.27v1.61h-8.27v4.41h9.09l-.32,1.61h-10.61v-13.24Z"/>
        <path class="cls-1" d="M67.9,83.68h1.84v11.63h8.68l-.32,1.61h-10.2v-13.24Z"/>
        <path class="cls-1" d="M93.05,90.93h-8.68v5.99h-1.84v-13.24h1.84v5.53h8.68v-5.53h1.84v13.24h-1.84v-5.99Z"/>
        <path class="cls-1" d="M99.59,90.3c0-1.41.31-2.64.92-3.68.61-1.04,1.47-1.85,2.58-2.42,1.11-.57,2.41-.85,3.9-.85s2.82.28,3.92.85,1.96,1.37,2.57,2.41.91,2.27.91,3.69-.31,2.63-.92,3.67-1.47,1.85-2.58,2.42c-1.11.57-2.41.86-3.9.86s-2.8-.28-3.91-.85c-1.11-.57-1.97-1.38-2.58-2.42-.61-1.04-.91-2.27-.91-3.68ZM101.51,90.3c0,1.68.48,2.99,1.45,3.92s2.31,1.4,4.04,1.4,3.06-.47,4.03-1.41c.97-.94,1.46-2.24,1.46-3.91s-.48-2.99-1.45-3.92c-.96-.93-2.31-1.4-4.04-1.4s-3.06.47-4.03,1.41c-.97.94-1.46,2.24-1.46,3.91Z"/>
        <path class="cls-1" d="M119.1,83.68h6.18c3.41,0,5.12,1.32,5.12,3.97,0,1.81-.87,2.99-2.61,3.54l3.32,5.73h-2.11l-3.06-5.36c-.1.01-.21.02-.34.02h-4.68v5.34h-1.8v-13.24ZM128.49,87.61c0-.82-.26-1.41-.79-1.77-.53-.36-1.38-.55-2.55-.55h-4.25v4.67h4.21c2.25,0,3.38-.79,3.38-2.36Z"/>
        <path class="cls-1" d="M146.11,85.29h-5.49v-1.61h12.81v1.61h-5.49v11.63h-1.84v-11.63Z"/>
        <path class="cls-1" d="M157.33,83.68h10.53v1.61h-8.7v3.99h8.27v1.61h-8.27v4.41h9.09l-.32,1.61h-10.61v-13.24ZM161.74,80.08h1.71l2.62,2.5h-1.8l-1.67-1.48-1.69,1.48h-1.78l2.61-2.5Z"/>
        <path class="cls-1" d="M172.77,83.68h1.78l8.81,10.65v-10.65h1.8v13.24h-1.78l-8.81-10.65v10.65h-1.8v-13.24Z"/>
        <path class="cls-1" d="M190.58,83.68h1.84v13.24h-1.84v-13.24Z"/>
        <path class="cls-1" d="M207.57,93.4c0-.62-.24-1.1-.71-1.45-.48-.35-1.24-.59-2.29-.74l-2.3-.33c-1.19-.17-2.14-.42-2.87-.73-.72-.32-1.25-.73-1.58-1.23-.33-.51-.49-1.14-.49-1.89,0-1.15.53-2.05,1.58-2.7,1.05-.65,2.51-.97,4.38-.97,1.69,0,3,.27,3.91.82.91.54,1.56,1.42,1.95,2.63l-1.76.32c-.31-.77-.78-1.32-1.42-1.65-.64-.33-1.53-.5-2.68-.5-1.31,0-2.32.17-3.03.52-.71.35-1.07.84-1.07,1.48s.24,1.11.71,1.43c.48.32,1.31.57,2.49.74l2.56.37c1.53.22,2.67.66,3.4,1.3.74.64,1.1,1.51,1.1,2.61,0,1.2-.52,2.14-1.56,2.82-1.04.68-2.48,1.02-4.34,1.02-4.08,0-6.27-1.4-6.58-4.19h1.89c.17.88.64,1.53,1.41,1.95.77.42,1.86.63,3.28.63,1.29,0,2.27-.19,2.97-.58.69-.39,1.04-.94,1.04-1.66Z"/>
        <path class="cls-1" d="M221.22,83.68h6.27c3.44,0,5.16,1.37,5.16,4.12s-1.79,4.17-5.38,4.17h-4.21v4.95h-1.84v-13.24ZM230.73,87.76c0-.85-.27-1.48-.81-1.87s-1.39-.59-2.57-.59h-4.3v5.06h4.27c1.16,0,2.02-.21,2.58-.64.56-.43.83-1.08.83-1.96Z"/>
        <path class="cls-1" d="M235.77,96.92h-1.97l6.42-13.24h1.89l6.42,13.24h-2.04l-1.74-3.65h-7.25l-1.72,3.65ZM241.13,85.65l-2.93,6.1h5.86l-2.93-6.1Z"/>
        <path class="cls-1" d="M252.46,83.68h6.18c3.41,0,5.12,1.32,5.12,3.97,0,1.81-.87,2.99-2.61,3.54l3.32,5.73h-2.11l-3.06-5.36c-.1.01-.21.02-.34.02h-4.68v5.34h-1.8v-13.24ZM261.85,87.61c0-.82-.26-1.41-.79-1.77-.53-.36-1.38-.55-2.55-.55h-4.25v4.67h4.21c2.25,0,3.38-.79,3.38-2.36Z"/>
        <path class="cls-1" d="M269.02,96.92h-1.97l6.42-13.24h1.89l6.42,13.24h-2.04l-1.74-3.65h-7.25l-1.72,3.65ZM274.38,85.65l-2.93,6.1h5.86l-2.93-6.1Z"/>
        <path class="cls-1" d="M302.5,93.4c0-.62-.24-1.1-.71-1.45-.48-.35-1.24-.59-2.29-.74l-2.3-.33c-1.19-.17-2.14-.42-2.87-.73-.72-.32-1.25-.73-1.58-1.23-.33-.51-.49-1.14-.49-1.89,0-1.15.53-2.05,1.58-2.7,1.05-.65,2.51-.97,4.38-.97,1.69,0,3,.27,3.91.82.91.54,1.56,1.42,1.95,2.63l-1.76.32c-.31-.77-.78-1.32-1.42-1.65-.64-.33-1.53-.5-2.68-.5-1.31,0-2.32.17-3.03.52-.71.35-1.07.84-1.07,1.48s.24,1.11.71,1.43c.48.32,1.31.57,2.49.74l2.56.37c1.53.22,2.67.66,3.4,1.3.74.64,1.1,1.51,1.1,2.61,0,1.2-.52,2.14-1.56,2.82-1.04.68-2.48,1.02-4.34,1.02-4.08,0-6.27-1.4-6.58-4.19h1.89c.17.88.64,1.53,1.41,1.95.77.42,1.86.63,3.28.63,1.29,0,2.27-.19,2.97-.58.69-.39,1.04-.94,1.04-1.66Z"/>
        <path class="cls-1" d="M308.95,91.6v-7.92h1.84v7.97c0,1.35.35,2.35,1.05,3,.7.65,1.78.97,3.24.97s2.54-.32,3.24-.97c.7-.65,1.05-1.65,1.05-3v-7.97h1.84v7.92c0,3.77-2.04,5.66-6.12,5.66s-6.12-1.89-6.12-5.66Z"/>
        <path class="cls-1" d="M326.39,96.92h-1.97l6.42-13.24h1.89l6.42,13.24h-2.04l-1.74-3.65h-7.25l-1.72,3.65ZM331.75,85.65l-2.93,6.1h5.86l-2.93-6.1Z"/>
        <path class="cls-1" d="M349.42,90.3c0-1.4.29-2.62.88-3.65.59-1.04,1.41-1.85,2.48-2.43,1.06-.58,2.31-.87,3.73-.87,3.47,0,5.62,1.45,6.44,4.36l-1.8.28c-.38-1.06-.94-1.83-1.66-2.3-.72-.47-1.72-.7-2.98-.7-1.06,0-1.98.22-2.75.65-.77.43-1.37,1.05-1.79,1.85-.42.8-.63,1.74-.63,2.83s.21,2.05.63,2.85c.42.8,1.02,1.41,1.81,1.84.79.43,1.72.64,2.79.64,1.36,0,2.42-.25,3.18-.74.76-.49,1.26-1.27,1.51-2.32h1.89c-.26,1.52-.95,2.68-2.08,3.49-1.13.8-2.63,1.21-4.51,1.21-1.46,0-2.72-.28-3.79-.85-1.07-.57-1.89-1.38-2.48-2.42-.58-1.04-.87-2.27-.87-3.68Z"/>
        <path class="cls-1" d="M367.07,90.3c0-1.41.31-2.64.92-3.68.61-1.04,1.47-1.85,2.58-2.42,1.11-.57,2.41-.85,3.9-.85s2.82.28,3.92.85,1.96,1.37,2.57,2.41.91,2.27.91,3.69-.31,2.63-.92,3.67-1.47,1.85-2.58,2.42c-1.11.57-2.41.86-3.9.86s-2.8-.28-3.91-.85c-1.11-.57-1.97-1.38-2.58-2.42-.61-1.04-.91-2.27-.91-3.68ZM368.98,90.3c0,1.68.48,2.99,1.45,3.92s2.31,1.4,4.04,1.4,3.06-.47,4.03-1.41c.97-.94,1.46-2.24,1.46-3.91s-.48-2.99-1.45-3.92c-.96-.93-2.31-1.4-4.04-1.4s-3.06.47-4.03,1.41c-.97.94-1.46,2.24-1.46,3.91Z"/>
        <path class="cls-1" d="M386.58,83.68h6.18c3.41,0,5.12,1.32,5.12,3.97,0,1.81-.87,2.99-2.61,3.54l3.32,5.73h-2.11l-3.06-5.36c-.1.01-.21.02-.34.02h-4.68v5.34h-1.8v-13.24ZM395.97,87.61c0-.82-.26-1.41-.79-1.77-.53-.36-1.38-.55-2.55-.55h-4.25v4.67h4.21c2.25,0,3.38-.79,3.38-2.36Z"/>
        <path class="cls-1" d="M402.57,83.68h6.18c3.41,0,5.12,1.32,5.12,3.97,0,1.81-.87,2.99-2.61,3.54l3.32,5.73h-2.11l-3.06-5.36c-.1.01-.21.02-.34.02h-4.68v5.34h-1.8v-13.24ZM411.95,87.61c0-.82-.26-1.41-.79-1.77-.53-.36-1.38-.55-2.55-.55h-4.25v4.67h4.21c2.25,0,3.38-.79,3.38-2.36Z"/>
        <path class="cls-1" d="M418.56,83.68h1.84v13.24h-1.84v-13.24Z"/>
        <path class="cls-1" d="M425.81,83.68h5.6c2.4,0,4.24.57,5.52,1.71,1.28,1.14,1.92,2.78,1.92,4.91s-.68,3.76-2.05,4.91c-1.37,1.14-3.32,1.72-5.87,1.72h-5.12v-13.24ZM436.93,90.3c0-3.34-1.84-5.01-5.53-5.01h-3.76v10.01h3.36c1.95,0,3.43-.42,4.43-1.27,1-.85,1.5-2.09,1.5-3.74Z"/>
        <path class="cls-1" d="M443.24,96.92h-1.97l6.42-13.24h1.89l6.42,13.24h-2.04l-1.74-3.65h-7.25l-1.72,3.65ZM448.6,85.65l-2.93,6.1h5.86l-2.93-6.1Z"/>
      </g>
    </g>
  </g>
</svg>