<?xml version="1.0" encoding="UTF-8"?>
<svg id="Camada_2" data-name="Camada 2" xmlns="http://www.w3.org/2000/svg" viewBox="0 0 460.99 117.41">
  <defs>
    <style>
      .cls-1 {
        fill: #d8fe0d;
      }

      .cls-2 {
        fill: #f7f7f7;
      }
    </style>
  </defs>
  <g id="Camada_5" data-name="Camada 5">
    <g>
      <path class="cls-2" d="M457.6,44.23c-.54,10.88-9.85,19.7-20.77,19.7h-23.1l-22.34.27,3.37-2.31v-.05s16.04-10.97,16.04-10.97l32.26-23.78h-12.62l16-20.38-41.31,27.41h13.1l-23.01,25.06L405.44.84h42.84c7.38,0,13.06,5.98,12.7,13.37-.34,6.69-5.54,12.24-12.01,13.21,5.51,3.45,9,9.69,8.64,16.81Z"/>
      <path class="cls-2" d="M243.1,32.16c2.08-14.59-5.17-25.88-19.14-30.24C219.47.5,214.96,0,210.22,0c-11.26,0-22.14,3.19-30.5,10.8-8.03,7.3-12.38,17.78-11.59,28.59.98,13.42,11.12,21.78,23.97,24.1,8.38,1.43,16.9.91,24.99-1.61l6.22,6.7,11.4-.04-9.37-10.36c9.67-5.65,16.21-15.07,17.77-26.02ZM217.1,49.17l-11.3-12.26-1.66,10.8,4.28,4.66c-6.67,1.25-14.27.49-19.56-3.71-3.13-2.49-5.11-5.97-5.69-9.98-1.04-7.13,1.23-14.31,6.16-19.59,4.38-4.67,10.37-7.15,16.75-7.64,4.05-.3,7.92.03,11.66,1.41,5.99,2.19,10,7.24,10.6,13.57.87,8.97-3.27,17.96-11.25,22.74Z"/>
      <polygon class="cls-2" points="375.2 37.09 334.93 37.08 332.77 52.35 378.23 52.35 376.73 63.41 317 63.4 325.77 .85 385.48 .84 383.96 11.9 338.51 11.9 336.35 27.13 376.62 27.13 375.2 37.09"/>
      <polygon class="cls-2" points="134.31 63.38 120.13 63.42 123.8 37.74 83.45 37.74 79.88 63.4 65.7 63.41 74.48 .84 88.65 .84 85.08 26.49 125.34 26.5 128.91 .84 143.08 .84 134.31 63.38"/>
      <path class="cls-2" d="M317.95.84l-4.97,35.48c-1.27,8.57-5.85,16.01-12.93,20.99-8.38,5.9-18.92,7.79-29.05,6.62-4.2-.48-8.12-1.62-11.78-3.63-9.59-5.26-12.77-15.07-11.01-25.66L252.94.84h14.44s-5,35.8-5,35.8c-.83,6.81,2.1,12.75,8.64,14.95,5.35,1.8,11.26,1.5,16.47-.73,5.89-2.51,9.74-7.6,10.97-13.88l5.06-36.15h14.43Z"/>
      <path class="cls-2" d="M50.81,51.12c4.22-1.32,7.85-3.13,11.32-5.78l-1.8,12.69c-3.23,2.01-6.51,3.35-10.1,4.34-5.11,1.39-10.19,1.94-15.52,1.87-9.31-.12-19.15-2.16-26.26-8.31-4.26-3.68-7.09-8.54-8.01-14.14-1.86-11.31,2.27-22.66,10.73-30.34C20.05,3.38,31.93.07,43.84,0c7.98-.04,17.47,1.35,23.85,6.24l-1.79,12.62c-3.13-2.96-6.5-4.74-10.44-5.95-6.58-1.9-13.44-2.16-20.17-.85-12.14,2.49-21.5,11.39-20.93,24.14.43,9.68,8.12,14.97,17.31,16.34,6.43.96,12.8.43,19.14-1.41Z"/>
      <polygon class="cls-2" points="157.46 63.42 143.21 63.4 151.98 .84 166.24 .84 157.46 63.42"/>
      <g>
        <path class="cls-1" d="M65.37,88.21c7.2,0,11.02-.25,18.3-.25s12.5,3.7,12.5,8.64-5.14,9.58-11.8,10.4l8.59,9.99h-3.45l-8.14-9.87h-16.16l-1.4,9.87h-2.47l4.03-28.78ZM82.47,104.99c6.46,0,11.18-4.15,11.18-7.98,0-3.54-3.78-6.78-10.28-6.78s-10.57.25-15.83.25l-2.06,14.47c2.8,0,11.27.04,16.98.04Z"/>
        <path class="cls-1" d="M122.24,104.41l2.26-16.2h2.51l-2.26,16.24c-.9,6.41,3.41,10.69,10.81,10.69s12.95-4.28,13.86-10.69l2.3-16.24h2.51l-2.3,16.2c-1.11,7.81-7.81,12.99-16.69,12.99-8.1,0-13.16-4.32-13.16-10.98,0-.66.08-1.32.16-2.01Z"/>
        <path class="cls-1" d="M182.44,88.21h5.26l18.63,26.4h1.85l3.7-26.4h2.3l-4.03,28.78h-5.26l-18.59-26.4h-1.85l-3.74,26.4h-2.3l4.03-28.78Z"/>
        <path class="cls-1" d="M242.93,88.21h5.26l18.63,26.4h1.85l3.7-26.4h2.3l-4.03,28.78h-5.26l-18.59-26.4h-1.85l-3.74,26.4h-2.3l4.03-28.78Z"/>
        <path class="cls-1" d="M303.41,88.21h27.3l-.29,2.22h-24.84l-1.56,11.1h22.45l-.29,2.14h-22.49l-1.52,11.1h24.84l-.33,2.22h-27.3l4.03-28.78Z"/>
        <path class="cls-1" d="M358.1,88.21c7.2,0,11.02-.25,18.3-.25s12.5,3.7,12.5,8.64-5.14,9.58-11.8,10.4l8.59,9.99h-3.45l-8.14-9.87h-16.16l-1.4,9.87h-2.47l4.03-28.78ZM375.21,104.99c6.46,0,11.18-4.15,11.18-7.98,0-3.54-3.78-6.78-10.28-6.78s-10.57.25-15.83.25l-2.06,14.47c2.8,0,11.27.04,16.98.04Z"/>
      </g>
    </g>
  </g>
</svg>