<?xml version="1.0" encoding="UTF-8"?>
<svg id="Camada_2" data-name="Camada 2" xmlns="http://www.w3.org/2000/svg" viewBox="0 0 663.71 68.57">
  <defs>
    <style>
      .cls-1 {
        fill: #fff;
      }

      .cls-2 {
        fill: #d8fe0d;
      }
    </style>
  </defs>
  <g id="Camada_5" data-name="Camada 5">
    <g>
      <path class="cls-2" d="M457.6,44.23c-.54,10.88-9.85,19.7-20.77,19.7h-23.1l-22.34.27,3.37-2.31v-.05s16.04-10.97,16.04-10.97l32.26-23.78h-12.62l16-20.38-41.31,27.41h13.1l-23.01,25.06L405.44.84h42.84c7.38,0,13.06,5.98,12.7,13.37-.34,6.69-5.54,12.24-12.01,13.21,5.51,3.45,9,9.69,8.64,16.81Z"/>
      <path class="cls-1" d="M243.1,32.16c2.08-14.59-5.17-25.88-19.14-30.24C219.47.5,214.96,0,210.22,0c-11.26,0-22.14,3.19-30.5,10.8-8.03,7.3-12.38,17.78-11.59,28.59.98,13.42,11.12,21.78,23.97,24.1,8.38,1.43,16.9.91,24.99-1.61l6.22,6.7,11.4-.04-9.37-10.36c9.67-5.65,16.21-15.07,17.77-26.02ZM217.1,49.17l-11.3-12.26-1.66,10.8,4.28,4.66c-6.67,1.25-14.27.49-19.56-3.71-3.13-2.49-5.11-5.97-5.69-9.98-1.04-7.13,1.23-14.31,6.16-19.59,4.38-4.67,10.37-7.15,16.75-7.64,4.05-.3,7.92.03,11.66,1.41,5.99,2.19,10,7.24,10.6,13.57.87,8.97-3.27,17.96-11.25,22.74Z"/>
      <polygon class="cls-1" points="375.2 37.09 334.93 37.08 332.77 52.35 378.23 52.35 376.73 63.41 317 63.4 325.77 .85 385.48 .84 383.96 11.9 338.51 11.9 336.35 27.13 376.62 27.13 375.2 37.09"/>
      <polygon class="cls-1" points="134.31 63.38 120.13 63.42 123.8 37.74 83.45 37.74 79.88 63.4 65.7 63.41 74.48 .84 88.65 .84 85.08 26.49 125.34 26.5 128.91 .84 143.08 .84 134.31 63.38"/>
      <path class="cls-1" d="M317.95.84l-4.97,35.48c-1.27,8.57-5.85,16.01-12.93,20.99-8.38,5.9-18.92,7.79-29.05,6.62-4.2-.48-8.12-1.62-11.78-3.63-9.59-5.26-12.77-15.07-11.01-25.66L252.94.84h14.44s-5,35.8-5,35.8c-.83,6.81,2.1,12.75,8.64,14.95,5.35,1.8,11.26,1.5,16.47-.73,5.89-2.51,9.74-7.6,10.97-13.88l5.06-36.15h14.43Z"/>
      <path class="cls-1" d="M50.81,51.12c4.22-1.32,7.85-3.13,11.32-5.78l-1.8,12.69c-3.23,2.01-6.51,3.35-10.1,4.34-5.11,1.39-10.19,1.94-15.52,1.87-9.31-.12-19.15-2.16-26.26-8.31-4.26-3.68-7.09-8.54-8.01-14.14-1.86-11.31,2.27-22.66,10.73-30.34C20.05,3.38,31.93.07,43.84,0c7.98-.04,17.47,1.35,23.85,6.24l-1.79,12.62c-3.13-2.96-6.5-4.74-10.44-5.95-6.58-1.9-13.44-2.16-20.17-.85-12.14,2.49-21.5,11.39-20.93,24.14.43,9.68,8.12,14.97,17.31,16.34,6.43.96,12.8.43,19.14-1.41Z"/>
      <polygon class="cls-1" points="157.46 63.42 143.21 63.4 151.98 .84 166.24 .84 157.46 63.42"/>
      <path class="cls-2" d="M550.66,64.7c-10.65-.44-19.44-4.08-28.2-9.66l3.76-22.08c.5.45.8.85,1.15,1.31l2.71,2.78c6.31,5.89,14.4,8.67,23.05,9.27l2.93.09h1.37s3.57-.08,3.57-.08c1.79-.04,3.53-.24,5.29-.64s3.65-1.19,3.59-3.11c-.02-.68-.38-1.28-1.05-1.53-.57-.21-1.24-.42-1.89-.42l-7.2.02h-2.51s-2.08-.09-2.08-.09c-2.54-.11-4.97-.5-7.44-1.05-5.52-1.24-11.08-3.61-14.76-7.91-2.59-3.02-3.84-6.85-3.49-10.87.36-4.14,2.05-7.95,4.95-11,1.62-1.7,3.47-3.06,5.53-4.23,5.43-3.07,12.85-4.65,18.96-5.12l2.43-.18,2-.1h7.44s2.08.1,2.08.1c5.41.26,12.33,1.47,17.36,3.37,1.93.73,3.7,1.57,5.45,2.69.04.31-.02.65-.08,1.01l-.96,5.61-1.83,10.67s-.06.19-.08.18l-.18-.08c-6.82-4.22-15.04-6.21-23.07-6.88l-1.32-.08-1.26-.07c-2.15-.12-4.26-.12-6.41.05l-1.9.27c-1.85.26-3.95,1.38-3.65,3.41.21,1.45,2.65,1.9,4.18,1.93l4.16.09,2.05.08,1.72.1c6.37.37,14.42,2.02,19.97,5.1,4.37,2.43,7.85,6.12,8.15,11.36l-.1,2.93c-.66,5.22-3.87,9.54-7.95,12.79-4.8,3.82-10.82,6.32-16.69,7.85-4.86,1.27-9.76,1.92-14.73,2.12h-4.95Z"/>
      <polygon class="cls-2" points="516.29 39.89 486.53 39.89 485.62 45.27 520.59 45.28 517.29 64.03 457.93 64.03 468.79 .87 528.24 .87 524.93 19.62 490.07 19.62 489.06 25.01 518.92 25.01 516.29 39.89"/>
      <polygon class="cls-2" points="634.57 64.03 608.57 64.04 616.22 19.28 598.03 19.26 601.14 .88 663.71 .88 660.51 19.27 642.22 19.27 634.57 64.03"/>
    </g>
  </g>
</svg>